<?xml version="1.0" encoding="UTF-8"?>
<svg id="Capa_1" data-name="Capa 1" xmlns="http://www.w3.org/2000/svg" viewBox="0 0 1024 1024">
  <defs>
    <style>
      .cls-1 {
        fill: #1d1d1b;
      }
    </style>
  </defs>
  <path class="cls-1" d="M806.6762,0H217.3344c-5.3043,0-10.3914,2.1071-14.1421,5.8579L5.8579,203.1923c-3.7507,3.7507-5.8579,8.8378-5.8579,14.1421v589.3311c0,5.3043,2.1071,10.3914,5.8579,14.1421l197.3344,197.3344c3.7507,3.7507,8.8378,5.8579,14.1421,5.8579h589.3205c5.3106,0,10.4032-2.1121,14.155-5.8707l197.3451-197.7044c3.7429-3.7497,5.845-8.8312,5.845-14.1293V216.9645c0-5.3106-2.1121-10.4032-5.8708-14.155L820.8055,5.845c-3.7497-3.7428-8.8312-5.845-14.1292-5.845ZM786.0056,800.4777L220.1059,517.5279c-6.7757-3.3878-11.0557-10.3131-11.0557-17.8885V229.0502c0-11.0457,8.9543-20,20-20h565.8997c11.0457,0,20,8.9543,20,20v553.539c0,14.8676-15.6463,24.5376-28.9443,17.8885Z"/>
</svg>